<mxfile host="app.diagrams.net" modified="2024-03-13T08:07:30.047Z" agent="Mozilla/5.0 (X11; Linux x86_64) AppleWebKit/537.36 (KHTML, like Gecko) Chrome/120.0.0.0 Safari/537.36" etag="MkcY1EP-qyE4UuxDjdpl" version="24.0.5" type="github">
  <diagram name="Page-1" id="VOycTrp6NL82KfrBGyco">
    <mxGraphModel dx="1378" dy="793" grid="1" gridSize="10" guides="1" tooltips="1" connect="1" arrows="1" fold="1" page="1" pageScale="1" pageWidth="850" pageHeight="1100" math="0" shadow="0">
      <root>
        <mxCell id="0" />
        <mxCell id="1" parent="0" />
        <mxCell id="lF6-vBymlAFP9dHWC2Mi-1" value="&lt;font style=&quot;font-size: 16px;&quot;&gt;Set of Input Trees&lt;/font&gt;" style="rounded=1;whiteSpace=wrap;html=1;" vertex="1" parent="1">
          <mxGeometry x="110" y="130" width="150" height="100" as="geometry" />
        </mxCell>
        <mxCell id="lF6-vBymlAFP9dHWC2Mi-2" value="" style="rounded=1;whiteSpace=wrap;html=1;" vertex="1" parent="1">
          <mxGeometry x="365" y="150" width="120" height="60" as="geometry" />
        </mxCell>
      </root>
    </mxGraphModel>
  </diagram>
</mxfile>
